<svg width="42" height="49" viewBox="0 0 42 49" fill="none" xmlns="http://www.w3.org/2000/svg">
<path d="M8.92308 31.4233C12.7466 31.4233 15.8462 28.3237 15.8462 24.5002C15.8462 20.6767 12.7466 17.5771 8.92308 17.5771C5.09957 17.5771 2 20.6767 2 24.5002C2 28.3237 5.09957 31.4233 8.92308 31.4233Z" stroke="#45C646" stroke-width="3" stroke-linecap="round" stroke-linejoin="round"/>
<path d="M33.1535 47.0005C36.9771 47.0005 40.0766 43.9009 40.0766 40.0774C40.0766 36.2539 36.9771 33.1543 33.1535 33.1543C29.33 33.1543 26.2305 36.2539 26.2305 40.0774C26.2305 43.9009 29.33 47.0005 33.1535 47.0005Z" stroke="#45C646" stroke-width="3" stroke-linecap="round" stroke-linejoin="round"/>
<path d="M33.1535 15.8462C36.9771 15.8462 40.0766 12.7466 40.0766 8.92308C40.0766 5.09957 36.9771 2 33.1535 2C29.33 2 26.2305 5.09957 26.2305 8.92308C26.2305 12.7466 29.33 15.8462 33.1535 15.8462Z" stroke="#45C646" stroke-width="3" stroke-linecap="round" stroke-linejoin="round"/>
<path d="M27.3312 12.666L14.7461 20.7565" stroke="#45C646" stroke-width="3" stroke-linecap="round" stroke-linejoin="round"/>
<path d="M14.7461 28.2432L27.3312 36.3336" stroke="#45C646" stroke-width="3" stroke-linecap="round" stroke-linejoin="round"/>
</svg>
