<svg width="132" height="34" viewBox="0 0 132 34" fill="none" xmlns="http://www.w3.org/2000/svg">
<path fill-rule="evenodd" clip-rule="evenodd" d="M41.9766 26.1426L43.6141 22.3374C45.3828 23.66 47.7394 24.3476 50.0644 24.3476C51.7807 24.3476 52.8671 23.6863 52.8671 22.6838C52.8408 19.8812 42.5854 22.075 42.5067 15.0474C42.4804 11.4784 45.6505 8.72822 50.1431 8.72822C52.8146 8.72822 55.4808 9.38953 57.386 10.8958L55.8535 14.7797C54.111 13.667 51.9434 12.8745 49.8807 12.8745C48.4794 12.8745 47.5557 13.5358 47.5557 14.3808C47.5819 17.131 57.9161 15.6247 58.0211 22.3374C58.0211 25.9851 54.9297 28.5516 50.4895 28.5516C47.2355 28.5464 44.2491 27.7801 41.9766 26.1426ZM104.858 20.9623C104.039 22.3899 102.507 23.3661 100.733 23.3661C98.1139 23.3661 96.0041 21.251 96.0041 18.6373C96.0041 16.0236 98.1192 13.9084 100.733 13.9084C102.502 13.9084 104.039 14.8846 104.858 16.3122L109.377 13.8035C107.687 10.7909 104.433 8.72822 100.733 8.72822C95.2588 8.72822 90.8186 13.1684 90.8186 18.6425C90.8186 24.1167 95.2588 28.5569 100.733 28.5569C104.459 28.5569 107.687 26.5205 109.377 23.4816L104.858 20.9623ZM60.2936 0.503906H65.9515V28.179H60.2936V0.503906ZM111.597 0.503906V28.179H117.255V19.8759L123.968 28.179H131.211L122.671 18.3171L130.576 9.11661H123.648L117.25 16.7531V0.503906H111.597Z" fill="#71717A"/>
<path d="M82.762 21.0145C81.9432 22.3634 80.2532 23.3658 78.348 23.3658C75.729 23.3658 73.6192 21.2507 73.6192 18.637C73.6192 16.0232 75.7343 13.9081 78.348 13.9081C80.2532 13.9081 81.9432 14.9631 82.762 16.3382V21.0145ZM82.762 9.12154V11.3679C81.8382 9.80909 79.5394 8.72266 77.1304 8.72266C72.1601 8.72266 68.25 13.1104 68.25 18.6107C68.25 24.1111 72.1601 28.5513 77.1304 28.5513C79.5342 28.5513 81.833 27.4701 82.762 25.9061V28.1524H88.4198V9.12154H82.762Z" fill="#71717A"/>
<path fill-rule="evenodd" clip-rule="evenodd" d="M7.00582 20.9883C7.00582 22.9197 5.44704 24.4785 3.51561 24.4785C1.58418 24.4785 0.0253906 22.9144 0.0253906 20.9883C0.0253906 19.0621 1.58418 17.498 3.51561 17.498H7.00582V20.9883ZM8.74831 20.9883C8.74831 19.0568 10.3071 17.498 12.2385 17.498C14.17 17.498 15.7287 19.0568 15.7287 20.9883V29.7112C15.7287 31.6426 14.17 33.2014 12.2385 33.2014C10.3071 33.2014 8.74831 31.6426 8.74831 29.7112V20.9883Z" fill="#71717A"/>
<path fill-rule="evenodd" clip-rule="evenodd" d="M12.2394 6.98043C10.3079 6.98043 8.74916 5.42164 8.74916 3.49022C8.74916 1.55879 10.3079 0 12.2394 0C14.1708 0 15.7296 1.55879 15.7296 3.49022V6.98043H12.2394ZM12.2394 8.74916C14.1708 8.74916 15.7296 10.3079 15.7296 12.2394C15.7296 14.1708 14.1708 15.7296 12.2394 15.7296H3.49022C1.55879 15.7296 0 14.1656 0 12.2394C0 10.3132 1.55879 8.74916 3.49022 8.74916H12.2394Z" fill="#71717A"/>
<path fill-rule="evenodd" clip-rule="evenodd" d="M26.221 12.2394C26.221 10.3079 27.7798 8.74916 29.7112 8.74916C31.6426 8.74916 33.2014 10.3079 33.2014 12.2394C33.2014 14.1708 31.6426 15.7296 29.7112 15.7296H26.221V12.2394ZM24.4785 12.2394C24.4785 14.1708 22.9197 15.7296 20.9883 15.7296C19.0568 15.7296 17.498 14.1708 17.498 12.2394V3.49022C17.498 1.55879 19.0568 0 20.9883 0C22.9197 0 24.4785 1.55879 24.4785 3.49022V12.2394Z" fill="#71717A"/>
<path fill-rule="evenodd" clip-rule="evenodd" d="M20.9883 26.221C22.9197 26.221 24.4785 27.7798 24.4785 29.7112C24.4785 31.6426 22.9197 33.2014 20.9883 33.2014C19.0568 33.2014 17.498 31.6426 17.498 29.7112V26.221H20.9883ZM20.9883 24.4785C19.0568 24.4785 17.498 22.9197 17.498 20.9883C17.498 19.0568 19.0568 17.498 20.9883 17.498H29.7374C31.6688 17.498 33.2276 19.0568 33.2276 20.9883C33.2276 22.9197 31.6688 24.4785 29.7374 24.4785H20.9883Z" fill="#71717A"/>
</svg>
