<svg width="113" height="36" viewBox="0 0 113 36" fill="none" xmlns="http://www.w3.org/2000/svg">
<path d="M37.1094 7.70898H43.0558L47.5706 19.9321H47.6808L51.9754 7.70898H57.5914L50.5438 25.7684H44.7076" fill="#71717A"/>
<path d="M15.4166 12.2232H9.91067V18.2797C9.91067 19.2708 10.0208 20.5922 11.0119 21.2529C12.0029 21.6934 13.1041 21.8035 14.2053 21.5832C14.6458 21.5832 15.0862 21.363 15.4166 21.1428V25.7677C14.7559 25.988 13.9851 26.0981 13.3243 26.2082C9.36008 26.6487 3.96427 25.8779 3.96427 20.9225V12.3333H0V7.7083H3.85415V2.42261H9.91067V7.7083H15.4166V12.2232ZM30.9433 7.7083H36.4492V25.7677H30.9433V7.7083ZM30.7231 2.9732C30.613 1.43154 31.9344 0 33.5862 0C35.2379 0 36.5594 1.2113 36.5594 2.86308V2.9732C36.5594 4.62498 35.1278 5.9464 33.5862 5.83629C32.0445 5.83629 30.7231 4.62498 30.7231 2.9732Z" fill="#71717A"/>
<path d="M99.2164 16.7383C99.2164 19.1609 100.648 21.2532 103.181 21.2532C105.713 21.2532 107.145 19.1609 107.145 16.7383C107.145 14.3157 105.713 12.2234 103.181 12.2234C100.648 12.2234 99.2164 14.3157 99.2164 16.7383ZM94.2611 16.7383C94.0408 11.783 97.895 7.48833 102.85 7.2681C105.824 7.15798 108.576 8.4794 110.449 10.7919C112.651 13.9853 112.981 18.0597 111.219 21.5835C108.797 25.9883 103.291 27.5299 98.8861 25.1073C95.9129 23.4555 94.0408 20.2621 94.2611 16.7383ZM88.3147 7.70857V10.1312H88.2045C88.0944 9.91094 87.8742 9.69071 87.654 9.47047C84.02 6.38715 77.9635 7.04786 75.651 11.3425C74.5498 13.655 74.2195 16.2978 74.66 18.8305C74.9903 21.143 75.8713 23.5656 77.8534 24.8871C80.1659 26.3186 82.9189 26.649 85.4516 25.6579C86.3325 25.3275 87.1034 24.6668 87.7641 23.896H87.8742V25.6579C87.9843 26.8692 87.5438 27.9704 86.773 28.8513C85.2314 30.5031 82.148 30.393 80.0558 29.8424C78.9546 29.5121 77.8534 29.0716 76.8623 28.4109L74.1094 32.3751C75.4308 33.3662 76.8623 34.0269 78.404 34.4674C82.3683 35.4585 87.7641 35.4585 90.8474 32.3751C92.6093 30.6132 93.27 27.9704 93.27 24.5567V7.70857H88.3147ZM86.9932 20.152C85.4516 21.8037 82.9189 21.9139 81.2671 20.3722L81.0468 20.152C79.6153 18.1698 79.6153 15.527 81.0468 13.5449C82.5885 11.8931 85.1212 11.783 86.773 13.3246L86.9932 13.5449C88.4248 15.4169 88.4248 18.1698 86.9932 20.152C87.654 19.271 86.2224 20.9228 86.9932 20.152Z" fill="#71717A"/>
<path d="M16.8477 7.70854H22.4637V10.6817H22.5738C23.0143 9.69068 23.7851 8.80973 24.6661 8.14902C26.2077 7.37819 27.9696 7.04783 29.6214 7.4883V12.5538C28.5202 12.2234 26.0976 11.7829 24.4458 12.774C23.3447 13.4347 22.5738 14.2055 22.5738 18.1698V25.6579H16.9578L16.8477 7.70854Z" fill="#71717A"/>
<path d="M62.7673 18.6097C61.6661 19.2704 60.8953 20.5918 61.8863 21.693C62.8774 22.6841 64.6393 22.574 65.8506 22.1335C67.2821 21.8031 68.2732 20.4817 68.2732 19.0502V17.949C68.3833 17.949 64.1988 17.7287 62.7673 18.6097ZM68.3833 23.565C67.7226 24.446 66.8417 25.2168 65.8506 25.6573C61.8863 27.3091 56.2703 25.6573 56.1602 20.7019C56.1602 15.5264 61.7762 14.5353 65.8506 14.4252H68.3833C68.3833 13.5442 68.053 12.6633 67.2821 12.1127C66.5789 11.5793 65.7347 11.2637 64.854 11.205C63.9732 11.1462 63.0946 11.347 62.3268 11.7823C61.556 12.2228 60.8953 12.6633 60.3447 13.324L57.2613 10.2407C58.2524 9.24961 59.5738 8.58889 60.8953 8.0383C63.428 7.15735 66.0708 7.04723 68.6036 7.70795C70.916 8.36866 72.5678 10.2407 73.0083 12.5532C73.2285 13.8746 73.3387 15.196 73.3387 16.5174V25.6573H68.2732L68.3833 23.565Z" fill="#71717A"/>
</svg>
