<svg width="45" height="45" viewBox="0 0 45 45" fill="none" xmlns="http://www.w3.org/2000/svg">
<path d="M35.1656 27.5672C37.7747 27.5672 40.277 26.5307 42.1219 24.6858C43.9669 22.8409 45.0033 20.3386 45.0033 17.7295C45.0033 15.1203 43.9669 12.618 42.1219 10.7731C40.277 8.92817 37.7747 7.8917 35.1656 7.8917C34.9688 7.8917 34.765 7.8917 34.5683 7.8917C33.5454 5.54625 31.8603 3.55026 29.7197 2.14847C27.579 0.746674 25.0758 0 22.517 0C19.9582 0 17.4551 0.746674 15.3144 2.14847C13.1738 3.55026 11.4887 5.54625 10.4658 7.8917C10.269 7.8917 10.0653 7.8917 9.8685 7.8917C7.25937 7.8917 4.75709 8.92817 2.91216 10.7731C1.06722 12.618 0.0307447 15.1203 0.0307447 17.7295C0.0307447 20.3386 1.06722 22.8409 2.91216 24.6858C4.75709 26.5307 7.25937 27.5672 9.8685 27.5672H13.382V33.7509H10.4658C10.2149 32.4975 9.51815 31.3775 8.50464 30.5984C7.49113 29.8194 6.22959 29.4342 4.95377 29.5141C3.67796 29.5941 2.47438 30.1338 1.56606 31.0333C0.657748 31.9327 0.106276 33.131 0.0138406 34.406C-0.0785947 35.6809 0.294274 36.9462 1.06335 37.9673C1.83243 38.9883 2.94557 39.696 4.19651 39.9592C5.44745 40.2223 6.75137 40.0231 7.86664 39.3984C8.98192 38.7737 9.83294 37.7659 10.262 36.5617H14.7874C15.1601 36.5617 15.5176 36.4137 15.7811 36.1501C16.0447 35.8865 16.1928 35.5291 16.1928 35.1563V27.5672H21.1116V34.6504C19.8829 34.9904 18.8191 35.7642 18.1172 36.8286C17.4154 37.8929 17.1232 39.1756 17.2947 40.4389C17.4663 41.7022 18.09 42.8605 19.0502 43.6992C20.0104 44.5379 21.2421 45 22.517 45C23.792 45 25.0236 44.5379 25.9839 43.6992C26.9441 42.8605 27.5678 41.7022 27.7393 40.4389C27.9109 39.1756 27.6187 37.8929 26.9169 36.8286C26.215 35.7642 25.1512 34.9904 23.9224 34.6504V27.5672H28.8413V35.1563C28.8413 35.5291 28.9894 35.8865 29.2529 36.1501C29.5165 36.4137 29.874 36.5617 30.2467 36.5617H34.7932C35.2215 37.7582 36.0688 38.759 37.1783 39.3788C38.2877 39.9986 39.5841 40.1955 40.8276 39.933C42.071 39.6704 43.1772 38.9663 43.9414 37.9509C44.7056 36.9355 45.0761 35.6776 44.9842 34.4101C44.8923 33.1426 44.3443 31.9513 43.4416 31.0567C42.5389 30.1622 41.3427 29.625 40.0744 29.5445C38.8061 29.4641 37.5516 29.8459 36.5432 30.6193C35.5347 31.3926 34.8406 32.5052 34.5894 33.7509H31.6521V27.5672H35.1656ZM5.30097 37.2644C4.81454 37.2644 4.33903 37.1202 3.93458 36.8499C3.53013 36.5797 3.2149 36.1956 3.02875 35.7462C2.8426 35.2968 2.79389 34.8023 2.88879 34.3252C2.98369 33.8481 3.21793 33.4099 3.56189 33.0659C3.90584 32.7219 4.34407 32.4877 4.82116 32.3928C5.29824 32.2979 5.79275 32.3466 6.24216 32.5328C6.69156 32.7189 7.07567 33.0341 7.34592 33.4386C7.61617 33.843 7.76041 34.3186 7.76041 34.805C7.76041 35.4573 7.50129 36.0828 7.04006 36.5441C6.57882 37.0053 5.95325 37.2644 5.30097 37.2644ZM39.7331 32.3455C40.2195 32.3455 40.6951 32.4898 41.0995 32.76C41.504 33.0303 41.8192 33.4144 42.0053 33.8638C42.1915 34.3132 42.2402 34.8077 42.1453 35.2848C42.0504 35.7619 41.8162 36.2001 41.4722 36.5441C41.1282 36.888 40.69 37.1223 40.2129 37.2172C39.7358 37.3121 39.2413 37.2634 38.7919 37.0772C38.3425 36.8911 37.9584 36.5758 37.6882 36.1714C37.4179 35.7669 37.2737 35.2914 37.2737 34.805C37.2737 34.1527 37.5328 33.5271 37.994 33.0659C38.4553 32.6047 39.0808 32.3455 39.7331 32.3455ZM24.9765 39.7239C24.9765 40.2103 24.8322 40.6858 24.562 41.0903C24.2917 41.4947 23.9076 41.8099 23.4582 41.9961C23.0088 42.1822 22.5143 42.2309 22.0372 42.136C21.5601 42.0411 21.1219 41.8069 20.778 41.463C20.434 41.119 20.1998 40.6808 20.1049 40.2037C20.01 39.7266 20.0587 39.2321 20.2448 38.7827C20.431 38.3333 20.7462 37.9492 21.1507 37.6789C21.5551 37.4087 22.0306 37.2644 22.517 37.2644C23.1693 37.2644 23.7949 37.5235 24.2561 37.9848C24.7174 38.446 24.9765 39.0716 24.9765 39.7239ZM9.8685 24.7564C8.00483 24.7564 6.2175 24.0161 4.89968 22.6983C3.58187 21.3805 2.84153 19.5931 2.84153 17.7295C2.84153 15.8658 3.58187 14.0784 4.89968 12.7606C6.2175 11.4428 8.00483 10.7025 9.8685 10.7025C10.2906 10.7036 10.7116 10.7436 11.1263 10.8219C11.4639 10.8839 11.8125 10.8202 12.1063 10.6429C12.4002 10.4656 12.619 10.1868 12.7214 9.85925C13.4088 7.80535 14.7245 6.01949 16.4823 4.75414C18.2401 3.4888 20.3512 2.808 22.517 2.808C24.6829 2.808 26.794 3.4888 28.5518 4.75414C30.3096 6.01949 31.6252 7.80535 32.3126 9.85925C32.4192 10.1829 32.6397 10.4568 32.9331 10.63C33.2265 10.8032 33.5729 10.864 33.9078 10.8009C34.3231 10.7296 34.7442 10.6966 35.1656 10.7025C37.0293 10.7025 38.8166 11.4428 40.1344 12.7606C41.4522 14.0784 42.1926 15.8658 42.1926 17.7295C42.1926 19.5931 41.4522 21.3805 40.1344 22.6983C38.8166 24.0161 37.0293 24.7564 35.1656 24.7564H9.8685Z" fill="#008EFF"/>
</svg>
